<?xml version="1.0" encoding="utf-8"?>
<!-- Generator: Adobe Illustrator 16.0.0, SVG Export Plug-In . SVG Version: 6.00 Build 0)  -->
<!DOCTYPE svg PUBLIC "-//W3C//DTD SVG 1.1//EN" "http://www.w3.org/Graphics/SVG/1.1/DTD/svg11.dtd">
<svg version="1.1" id="Layer_1" xmlns="http://www.w3.org/2000/svg" xmlns:xlink="http://www.w3.org/1999/xlink" x="0px" y="0px"
	 width="2000px" height="1700px" viewBox="0 0 2000 1700" enable-background="new 0 0 2000 1700" xml:space="preserve">
<g>
	<g>
		<path fill="#1072BA" d="M519.51,421.033c146.417-157.87,357.534-260.657,574.982-255.731
			c136.39,1.72,272.961,51.144,374.271,143.403c71.577,64.694,125.934,148.579,155.043,240.656
			c-43.943,0.125-87.824-0.246-131.715,0.246c-43.509-81.181-97.548-159.652-173.937-213.203
			c-110.541-80.995-253.701-111.772-388.611-93.188c-217.453,27.762-412.62,166.13-526.122,351.449
			c-18.272,27.45-30.649,58.163-47.262,86.536C390.564,583.889,450.079,496.739,519.51,421.033z"/>
		<path fill="#1072BA" d="M1394.841,1166.324c5.247-6.153,9.363-16.438,19.209-15.515c39.891-1.718,79.824-0.431,119.708-0.361
			c-109.062,176.392-286.38,311.866-488.195,362.894c-134.794,33.971-281.77,29.605-410.159-26.536
			c-117.863-52.129-221.328-144.94-273.029-264.288c35.209,52.438,72.995,104.385,123.093,143.655
			c108.574,89.552,255.124,127.16,394.034,111.891C1086.61,1457.692,1276.424,1335.28,1394.841,1166.324z"/>
		<path fill="#989898" d="M429.402,602.726c113.43-184.091,312.044-319.315,529.872-336.241
			c161.254-14.771,332.23,47.454,433.844,176.095c-50.896-47.029-107.645-89.433-173.93-112.02
			c-108.942-41.051-230.808-35.947-340.426-0.311c-202.366,66.349-366.268,237.208-427.021,440.935
			c-29.914,101.742-32.868,212.715-0.556,314.271c32.007,106.535,106.36,199.835,203.664,253.946
			c87.831,50.777,192.647,67.208,292.79,56.376c126.356-14.332,246.26-71.395,341.097-155.479
			c33.427-27.564,59.271-62.522,90.601-92.25c-26.399,46.948-65.241,85.06-103.276,122.478
			c-148.395,138.792-362.584,215.669-564.46,172.208c-112.079-23.575-215.545-87.946-283.925-180.09
			c-60.563-76.993-88.261-174.98-94.234-271.544C324.766,856.001,356.956,717.518,429.402,602.726z"/>
	</g>
	<g>
		<path fill="#1072BA" d="M935.892,872.488l-60.794,78.524h-152.83c-52.918,0-96.753-14.702-131.51-44.117
			c-34.764-29.408-52.14-66.349-52.14-110.824c0-44.467,17.165-80.491,51.505-108.079c34.335-27.58,78.381-41.374,132.144-41.374
			h213.624l-60.794,78.949h-152.83c-25.898,0-47.285,6.966-64.172,20.898c-16.888,13.932-25.331,31.737-25.331,53.405
			c0,21.394,8.443,38.842,25.331,52.351c16.888,13.511,38.274,20.267,64.172,20.267H935.892z"/>
		<path fill="#1072BA" d="M1334.424,872.488l-60.795,78.524h-152.828c-52.918,0-96.753-14.702-131.51-44.117
			c-34.765-29.408-52.14-66.349-52.14-110.824c0-44.467,17.165-80.491,51.506-108.079c34.335-27.58,78.38-41.374,132.144-41.374
			h213.623l-60.795,78.949h-152.828c-25.9,0-47.286,6.966-64.173,20.898c-16.888,13.932-25.33,31.737-25.33,53.405
			c0,21.394,8.442,38.842,25.33,52.351c16.887,13.511,38.272,20.267,64.173,20.267H1334.424z"/>
		<path fill="#1072BA" d="M1667.94,646.619l-60.795,78.949H1431.94v32.085h221.224l-60.792,78.527H1431.94v114.833h-94.569V646.619
			H1667.94z"/>
	</g>
	<g>
		<path fill="#58595B" d="M654.249,1063.864l-17.782,22.97h-44.702c-15.479,0-28.301-4.301-38.468-12.903
			c-10.168-8.602-15.251-19.407-15.251-32.417c0-13.007,5.021-23.543,15.066-31.613c10.043-8.068,22.927-12.103,38.653-12.103
			h62.484l-17.782,23.093h-44.702c-7.576,0-13.831,2.037-18.771,6.113c-4.94,4.075-7.41,9.282-7.41,15.621
			c0,6.256,2.47,11.362,7.41,15.313c4.939,3.952,11.194,5.927,18.771,5.927H654.249z"/>
		<path fill="#58595B" d="M799.471,1041.514c0,13.01-5.084,23.815-15.251,32.417c-10.169,8.603-22.99,12.903-38.467,12.903h-26.796
			c-15.561,0-28.424-4.301-38.59-12.903c-10.169-8.602-15.252-19.407-15.252-32.417c0-13.007,5.042-23.543,15.127-31.613
			c10.083-8.068,22.989-12.103,38.715-12.103h26.796c15.725,0,28.606,4.034,38.652,12.103
			C794.449,1017.971,799.471,1028.507,799.471,1041.514z M745.753,1020.891h-26.796c-7.657,0-13.955,2.037-18.896,6.113
			c-4.939,4.075-7.409,9.282-7.409,15.621c0,6.34,2.47,11.465,7.409,15.374c4.94,3.911,11.238,5.865,18.896,5.865h26.796
			c7.656,0,13.955-1.954,18.894-5.865c4.94-3.909,7.411-9.034,7.411-15.374c0-6.339-2.492-11.546-7.472-15.621
			C759.604,1022.928,753.326,1020.891,745.753,1020.891z"/>
		<path fill="#58595B" d="M975.442,1087.08h-30.255l-11.731-47.048l-24.945,40.133c-3.294,5.187-7.823,7.78-13.585,7.78
			c-2.963,0-5.846-0.74-8.644-2.224c-2.799-1.481-4.899-3.333-6.298-5.557l-25.068-40.133l-11.607,47.048h-30.378l23.092-79.033
			c0.904-3.209,2.819-5.904,5.742-8.087c2.921-2.181,6.277-3.273,10.064-3.273c5.845,0,10.908,3.458,15.189,10.373l27.167,44.333
			l27.291-44.333c4.199-6.915,9.219-10.373,15.065-10.373c3.87,0,7.244,1.093,10.127,3.273c2.88,2.183,4.816,4.878,5.805,8.087
			L975.442,1087.08z"/>
		<path fill="#58595B" d="M1105.847,1031.141c0,10.046-4.324,18.195-12.968,24.451c-8.317,5.928-18.606,8.892-30.872,8.892h-46.556
			v22.351h-27.537v-45.443h76.811c3.784,0,6.977-0.945,9.568-2.842c2.595-1.893,3.891-4.402,3.891-7.531s-1.296-5.597-3.891-7.41
			c-2.592-1.81-5.784-2.717-9.568-2.717h-76.811l18.275-23.093h55.942c12.182,0,22.43,2.964,30.747,8.892
			C1101.522,1012.947,1105.847,1021.097,1105.847,1031.141z"/>
		<path fill="#58595B" d="M1236.127,1046.328c0,27.006-18.526,40.506-55.572,40.506h-5.802c-37.049,0-55.572-13.5-55.572-40.506
			v-48.53h27.539v48.53c0,8.07,3.539,13.259,10.62,15.562c3.784,1.316,11.524,1.975,23.215,1.975c9.303,0,15.93-0.987,19.884-2.962
			c5.35-2.552,8.025-7.409,8.025-14.574v-48.53h27.663V1046.328z"/>
		<path fill="#58595B" d="M1356.651,997.798l-17.907,23.093h-26.675v65.943h-27.662v-65.943h-36.675l17.783-23.093H1356.651z"/>
		<path fill="#58595B" d="M1399.006,1086.834h-27.538v-89.036h27.538V1086.834z"/>
		<path fill="#58595B" d="M1525.579,1075.351c0,8.068-3.662,12.1-10.99,12.1c-5.269,0-10.291-1.974-15.065-5.928l-52.112-43.589
			v48.9h-27.661v-77.552c0-3.291,1.05-6.007,3.148-8.149c2.102-2.142,5.081-3.212,8.953-3.212c5.022,0,9.672,1.773,13.956,5.312
			l52.112,43.591v-49.025h27.659V1075.351z"/>
		<path fill="#58595B" d="M1657.343,997.798l-17.781,23.093h-44.704c-7.575,0-13.852,2.037-18.831,6.113
			c-4.984,4.075-7.474,9.282-7.474,15.621c0,6.34,2.473,11.465,7.41,15.374c4.94,3.911,11.239,5.865,18.895,5.865h32.108v-8.272
			h-34.579l-18.151-21.982h80.392v53.225h-59.77c-15.478,0-28.299-4.301-38.466-12.903c-10.167-8.602-15.253-19.407-15.253-32.417
			c0-13.007,5.022-23.543,15.065-31.613c10.045-8.068,22.928-12.103,38.653-12.103H1657.343z"/>
	</g>
</g>
</svg>
